<?xml version="1.0" encoding="utf-8"?>
<!-- Generator: Adobe Illustrator 16.0.3, SVG Export Plug-In . SVG Version: 6.00 Build 0)  -->
<!DOCTYPE svg PUBLIC "-//W3C//DTD SVG 1.1//EN" "http://www.w3.org/Graphics/SVG/1.1/DTD/svg11.dtd">
<svg version="1.1" id="Layer_1" xmlns="http://www.w3.org/2000/svg" xmlns:xlink="http://www.w3.org/1999/xlink" x="0px" y="0px"
	 width="34.6821289px" height="18.7480469px" viewBox="0 0 34.6821289 18.7480469"
	 enable-background="new 0 0 34.6821289 18.7480469" xml:space="preserve">
<path fill="#FFFFFF" d="M34.2426758,0.4394531c-0.5859375-0.5859375-1.5351563-0.5859375-2.1210938,0L17.340332,15.21875
	L2.5610352,0.4394531c-0.5859375-0.5859375-1.5351563-0.5859375-2.1210938,0c-0.5859375,0.5849609-0.5859375,1.5361328,0,2.1210938
	l15.7480469,15.7480469c0.2929688,0.2929688,0.6767578,0.4394531,1.0605469,0.4394531
	c0.03125,0,0.0605469-0.015625,0.0917969-0.0175781c0.03125,0.0019531,0.0605469,0.0175781,0.0917969,0.0175781
	c0.3837891,0,0.7675781-0.1464844,1.0605469-0.4394531l15.75-15.7480469
	C34.8286133,1.9755859,34.8286133,1.0244141,34.2426758,0.4394531z"/>
</svg>
