<?xml version="1.0" encoding="utf-8"?>
<!-- Generator: Adobe Illustrator 18.0.0, SVG Export Plug-In . SVG Version: 6.00 Build 0)  -->
<!DOCTYPE svg PUBLIC "-//W3C//DTD SVG 1.1//EN" "http://www.w3.org/Graphics/SVG/1.1/DTD/svg11.dtd">
<svg version="1.1" xmlns="http://www.w3.org/2000/svg" xmlns:xlink="http://www.w3.org/1999/xlink" x="0px" y="0px"
	 viewBox="0 0 81.7 82.6" enable-background="new 0 0 81.7 82.6" xml:space="preserve">
<g id="Imagen">
</g>
<g id="a1_1_">
</g>
<g id="a2">
	<g>
		<g>
			<defs>
				<rect id="SVGID_29_" x="0" y="0" width="81.7" height="82.6"/>
			</defs>
			<clipPath id="SVGID_2_">
				<use xlink:href="#SVGID_29_"  overflow="visible"/>
			</clipPath>
			<g clip-path="url(#SVGID_2_)">
				<defs>
					<rect id="SVGID_31_" x="-7.6" y="-16.7" width="96.6" height="111.7"/>
				</defs>
				<clipPath id="SVGID_4_">
					<use xlink:href="#SVGID_31_"  overflow="visible"/>
				</clipPath>
				<path clip-path="url(#SVGID_4_)" fill-rule="evenodd" clip-rule="evenodd" fill="#E0E0E0" d="M41.6,72.2
					c16.9,0,30.6-13.7,30.6-30.5c0-16.8-13.7-30.6-30.6-30.6c-16.8,0-30.5,13.8-30.5,30.6C11.1,58.6,24.8,72.2,41.6,72.2"/>
				<path clip-path="url(#SVGID_4_)" fill-rule="evenodd" clip-rule="evenodd" fill="#FFFFFF" d="M41.7,72.5
					c16.8,0,30.6-13.8,30.6-30.6c0-16.8-13.8-30.5-30.6-30.5c-16.8,0-30.6,13.7-30.6,30.5C11.1,58.7,24.9,72.5,41.7,72.5"/>
				<path clip-path="url(#SVGID_4_)" fill="none" stroke="#272724" stroke-width="0.8256" d="M41.7,72.5c16.8,0,30.6-13.8,30.6-30.6
					c0-16.8-13.8-30.5-30.6-30.5c-16.8,0-30.6,13.7-30.6,30.5C11.1,58.7,24.9,72.5,41.7,72.5z"/>
				<polygon clip-path="url(#SVGID_4_)" fill-rule="evenodd" clip-rule="evenodd" fill="#FFD428" points="53.4,13.8 41.7,42 
					38.2,33.7 				"/>
				<polygon clip-path="url(#SVGID_4_)" fill-rule="evenodd" clip-rule="evenodd" fill="#FFD428" points="53.4,13.8 41.7,42 
					50.1,38.6 				"/>
				<polygon clip-path="url(#SVGID_4_)" fill-rule="evenodd" clip-rule="evenodd" fill="#FFD428" points="69.9,53.6 41.7,42 
					50.1,38.6 				"/>
				<polygon clip-path="url(#SVGID_4_)" fill-rule="evenodd" clip-rule="evenodd" fill="#FFD428" points="69.9,53.6 41.7,42 
					45,50.3 				"/>
				<polygon clip-path="url(#SVGID_4_)" fill-rule="evenodd" clip-rule="evenodd" fill="#FFD428" points="30,70.1 41.7,42 45,50.3 
									"/>
				<polygon clip-path="url(#SVGID_4_)" fill-rule="evenodd" clip-rule="evenodd" fill="#FFD428" points="30,70.1 41.7,42 
					33.5,45.5 				"/>
				<polygon clip-path="url(#SVGID_4_)" fill-rule="evenodd" clip-rule="evenodd" fill="#FFD428" points="13.5,30.3 41.7,42 
					33.5,45.5 				"/>
				<polygon clip-path="url(#SVGID_4_)" fill-rule="evenodd" clip-rule="evenodd" fill="#FFD428" points="13.5,30.3 41.7,42 
					38.2,33.7 				"/>
				<polygon clip-path="url(#SVGID_4_)" fill-rule="evenodd" clip-rule="evenodd" fill="#FFD428" points="30,13.8 41.7,42 
					33.4,38.6 				"/>
				<polygon clip-path="url(#SVGID_4_)" fill-rule="evenodd" clip-rule="evenodd" fill="#FFD428" points="30,13.8 41.7,42 
					45.3,33.7 				"/>
				<polygon clip-path="url(#SVGID_4_)" fill-rule="evenodd" clip-rule="evenodd" fill="#FFD428" points="69.9,30.3 41.7,42 
					45.3,33.7 				"/>
				<polygon clip-path="url(#SVGID_4_)" fill-rule="evenodd" clip-rule="evenodd" fill="#FFD428" points="69.9,30.3 41.7,42 
					50,45.5 				"/>
				<polygon clip-path="url(#SVGID_4_)" fill-rule="evenodd" clip-rule="evenodd" fill="#FFD428" points="53.4,70.1 41.7,42 
					50,45.5 				"/>
				<polygon clip-path="url(#SVGID_4_)" fill-rule="evenodd" clip-rule="evenodd" fill="#FFD428" points="53.4,70.1 41.7,42 
					38.4,50.3 				"/>
				<polygon clip-path="url(#SVGID_4_)" fill-rule="evenodd" clip-rule="evenodd" fill="#FFD428" points="13.5,53.6 41.7,42 
					38.4,50.3 				"/>
				<polygon clip-path="url(#SVGID_4_)" fill-rule="evenodd" clip-rule="evenodd" fill="#FFD428" points="13.5,53.6 41.7,42 
					33.4,38.6 				"/>
				<polygon clip-path="url(#SVGID_4_)" fill-rule="evenodd" clip-rule="evenodd" fill="#00A7A3" points="63.3,20.4 41.7,42 
					41.6,33 				"/>
				<polygon clip-path="url(#SVGID_4_)" fill="none" stroke="#272724" stroke-width="0.2355" points="63.3,20.4 41.7,42 41.6,33 
									"/>
				<polygon clip-path="url(#SVGID_4_)" fill-rule="evenodd" clip-rule="evenodd" fill="#00A7A3" points="63.3,20.4 41.7,42 
					50.7,42.1 				"/>
				<polygon clip-path="url(#SVGID_4_)" fill="none" stroke="#272724" stroke-width="0.2355" points="63.3,20.4 41.7,42 50.7,42.1 
									"/>
				<polygon clip-path="url(#SVGID_4_)" fill-rule="evenodd" clip-rule="evenodd" fill="#00A7A3" points="63.3,63.5 41.7,42 
					50.7,42.1 				"/>
				<polygon clip-path="url(#SVGID_4_)" fill="none" stroke="#272724" stroke-width="0.2355" points="63.3,63.5 41.7,42 50.7,42.1 
									"/>
				<polygon clip-path="url(#SVGID_4_)" fill-rule="evenodd" clip-rule="evenodd" fill="#00A7A3" points="63.3,63.5 41.7,42 
					41.6,50.9 				"/>
				<polygon clip-path="url(#SVGID_4_)" fill="none" stroke="#272724" stroke-width="0.2355" points="63.3,63.5 41.7,42 41.6,50.9 
									"/>
				<polygon clip-path="url(#SVGID_4_)" fill-rule="evenodd" clip-rule="evenodd" fill="#00A7A3" points="20.1,63.5 41.7,42 
					41.6,50.9 				"/>
				<polygon clip-path="url(#SVGID_4_)" fill="none" stroke="#272724" stroke-width="0.2355" points="20.1,63.5 41.7,42 41.6,50.9 
									"/>
				<polygon clip-path="url(#SVGID_4_)" fill-rule="evenodd" clip-rule="evenodd" fill="#00A7A3" points="20.1,63.5 41.7,42 
					32.7,42.1 				"/>
				<polygon clip-path="url(#SVGID_4_)" fill="none" stroke="#272724" stroke-width="0.2355" points="20.1,63.5 41.7,42 32.7,42.1 
									"/>
				<polygon clip-path="url(#SVGID_4_)" fill-rule="evenodd" clip-rule="evenodd" fill="#00A7A3" points="20.1,20.4 41.7,42 
					32.7,42.1 				"/>
				<polygon clip-path="url(#SVGID_4_)" fill="none" stroke="#272724" stroke-width="0.2355" points="20.1,20.4 41.7,42 32.7,42.1 
									"/>
				<polygon clip-path="url(#SVGID_4_)" fill-rule="evenodd" clip-rule="evenodd" fill="#00A7A3" points="20.1,20.4 41.7,42 
					41.6,33 				"/>
				<polygon clip-path="url(#SVGID_4_)" fill="none" stroke="#272724" stroke-width="0.2355" points="20.1,20.4 41.7,42 41.6,33 
									"/>
				<polygon clip-path="url(#SVGID_4_)" fill-rule="evenodd" clip-rule="evenodd" fill="#FFFFFF" points="41.7,11.5 41.7,42 
					35.3,35.7 				"/>
				<polygon clip-path="url(#SVGID_4_)" fill="none" stroke="#272724" stroke-width="0.2355" points="41.7,11.5 41.7,42 35.3,35.7 
									"/>
				<polygon clip-path="url(#SVGID_4_)" fill-rule="evenodd" clip-rule="evenodd" fill="#EE281A" points="41.7,11.5 41.7,42 
					48.1,35.7 				"/>
				<polygon clip-path="url(#SVGID_4_)" fill="none" stroke="#272724" stroke-width="0.2355" points="41.7,11.5 41.7,42 48.1,35.7 
									"/>
				<polygon clip-path="url(#SVGID_4_)" fill-rule="evenodd" clip-rule="evenodd" fill="#FFFFFF" points="72.3,42 41.7,42 
					48.1,35.7 				"/>
				<polygon clip-path="url(#SVGID_4_)" fill="none" stroke="#272724" stroke-width="0.2355" points="72.3,42 41.7,42 48.1,35.7 
									"/>
				<polygon clip-path="url(#SVGID_4_)" fill-rule="evenodd" clip-rule="evenodd" fill="#EE281A" points="72.3,42 41.7,42 48,48.4 
									"/>
				<polygon clip-path="url(#SVGID_4_)" fill="none" stroke="#272724" stroke-width="0.2355" points="72.3,42 41.7,42 48,48.4 				
					"/>
				<polygon clip-path="url(#SVGID_4_)" fill-rule="evenodd" clip-rule="evenodd" fill="#FFFFFF" points="41.7,72.5 41.7,42 
					48,48.4 				"/>
				<polygon clip-path="url(#SVGID_4_)" fill="none" stroke="#272724" stroke-width="0.2355" points="41.7,72.5 41.7,42 48,48.4 
									"/>
				<polygon clip-path="url(#SVGID_4_)" fill-rule="evenodd" clip-rule="evenodd" fill="#EE281A" points="41.7,72.5 41.7,42 
					35.5,48.4 				"/>
				<polygon clip-path="url(#SVGID_4_)" fill="none" stroke="#272724" stroke-width="0.2355" points="41.7,72.5 41.7,42 35.5,48.4 
									"/>
				<polygon clip-path="url(#SVGID_4_)" fill-rule="evenodd" clip-rule="evenodd" fill="#FFFFFF" points="11.1,42 41.7,42 
					35.5,48.4 				"/>
				<polygon clip-path="url(#SVGID_4_)" fill="none" stroke="#272724" stroke-width="0.2355" points="11.1,42 41.7,42 35.5,48.4 
									"/>
				<polygon clip-path="url(#SVGID_4_)" fill-rule="evenodd" clip-rule="evenodd" fill="#EE281A" points="11.1,42 41.7,42 
					35.3,35.7 				"/>
				<polygon clip-path="url(#SVGID_4_)" fill="none" stroke="#272724" stroke-width="0.2355" points="11.1,42 41.7,42 35.3,35.7 
									"/>
				<polygon clip-path="url(#SVGID_4_)" fill="#EE281A" points="38.9,7.4 38.9,0 40.4,0 43.4,5 43.4,0 44.8,0 44.8,7.4 43.3,7.4 
					40.3,2.5 40.3,7.4 				"/>
				<path clip-path="url(#SVGID_4_)" fill="#EE281A" d="M39.3,80.8l1.1-0.1c0.1,0.4,0.2,0.6,0.4,0.8c0.2,0.2,0.5,0.3,0.8,0.3
					c0.4,0,0.6-0.1,0.8-0.2c0.2-0.2,0.3-0.3,0.3-0.5c0-0.1,0-0.2-0.1-0.3c-0.1-0.1-0.2-0.2-0.4-0.2c-0.1,0-0.4-0.1-0.9-0.2
					c-0.6-0.1-1-0.3-1.2-0.5c-0.3-0.3-0.5-0.7-0.5-1.1c0-0.3,0.1-0.5,0.2-0.8c0.2-0.2,0.4-0.4,0.7-0.6C40.7,77,41,77,41.5,77
					c0.7,0,1.2,0.2,1.5,0.5c0.3,0.3,0.5,0.7,0.5,1.2l-1.1,0c0-0.3-0.1-0.5-0.3-0.6c-0.2-0.1-0.4-0.2-0.7-0.2c-0.3,0-0.6,0.1-0.8,0.2
					c-0.1,0.1-0.2,0.2-0.2,0.3c0,0.1,0.1,0.2,0.2,0.3c0.1,0.1,0.5,0.2,1,0.4c0.5,0.1,0.9,0.3,1.2,0.4c0.3,0.1,0.5,0.3,0.6,0.6
					c0.1,0.2,0.2,0.5,0.2,0.9c0,0.3-0.1,0.6-0.3,0.9c-0.2,0.3-0.4,0.5-0.7,0.6c-0.3,0.1-0.7,0.2-1.2,0.2c-0.7,0-1.2-0.2-1.6-0.5
					C39.6,81.8,39.3,81.4,39.3,80.8"/>
				<path clip-path="url(#SVGID_4_)" fill="#EE281A" d="M0,41.8c0-0.6,0.1-1,0.3-1.4c0.1-0.3,0.3-0.5,0.5-0.7
					c0.2-0.2,0.4-0.4,0.7-0.5c0.3-0.1,0.7-0.2,1.2-0.2c0.8,0,1.5,0.2,1.9,0.7c0.5,0.5,0.7,1.2,0.7,2.1c0,0.9-0.2,1.6-0.7,2.1
					c-0.5,0.5-1.1,0.7-1.9,0.7c-0.8,0-1.5-0.3-1.9-0.7C0.2,43.3,0,42.6,0,41.8 M1.1,41.7c0,0.6,0.1,1.1,0.4,1.4
					c0.3,0.3,0.6,0.5,1.1,0.5c0.4,0,0.8-0.2,1.1-0.5c0.3-0.3,0.4-0.8,0.4-1.4c0-0.6-0.1-1.1-0.4-1.4c-0.3-0.3-0.6-0.5-1.1-0.5
					c-0.5,0-0.8,0.2-1.1,0.5C1.3,40.6,1.1,41.1,1.1,41.7"/>
				<polygon clip-path="url(#SVGID_4_)" fill="#EE281A" points="77.5,44.5 77.5,39 81.6,39 81.6,39.9 78.6,39.9 78.6,41.1 
					81.4,41.1 81.4,42 78.6,42 78.6,43.5 81.7,43.5 81.7,44.5 				"/>
				<polygon clip-path="url(#SVGID_4_)" fill="#00A7A3" points="11.2,12 14.5,8.7 14.9,9.2 14.1,13.5 16.7,10.9 17.1,11.3 
					13.8,14.7 13.3,14.2 14.2,9.9 11.6,12.5 				"/>
				<path clip-path="url(#SVGID_4_)" fill="#00A7A3" d="M16,13.6c0.5-0.5,1.1-0.8,1.7-0.8c0.6,0,1.1,0.2,1.6,0.7
					c0.3,0.3,0.5,0.7,0.6,1c0.1,0.4,0.1,0.8-0.1,1.2c-0.1,0.4-0.4,0.7-0.7,1.1c-0.3,0.3-0.7,0.6-1.1,0.7c-0.4,0.1-0.8,0.1-1.2,0
					c-0.4-0.1-0.7-0.3-1-0.6c-0.3-0.3-0.5-0.7-0.6-1.1c-0.1-0.4-0.1-0.8,0.1-1.2C15.5,14.3,15.7,13.9,16,13.6 M16.5,14.1
					c-0.4,0.4-0.6,0.8-0.6,1.3c0,0.4,0.1,0.8,0.5,1.2c0.3,0.3,0.7,0.5,1.2,0.5c0.4,0,0.9-0.2,1.3-0.7c0.3-0.3,0.5-0.5,0.6-0.8
					c0.1-0.3,0.1-0.6,0.1-0.9c-0.1-0.3-0.2-0.5-0.4-0.8c-0.3-0.3-0.7-0.5-1.1-0.5C17.4,13.4,17,13.6,16.5,14.1"/>
				<path clip-path="url(#SVGID_4_)" fill="#00A7A3" d="M9.8,71.1l0.4-0.4c0.2,0.1,0.4,0.2,0.5,0.3c0.2,0,0.4,0,0.6-0.1
					c0.2-0.1,0.4-0.2,0.6-0.4c0.2-0.2,0.3-0.3,0.4-0.5c0.1-0.2,0.1-0.3,0.1-0.5c0-0.1-0.1-0.3-0.2-0.4c-0.1-0.1-0.2-0.2-0.4-0.2
					c-0.1,0-0.3,0-0.5,0.1c-0.1,0.1-0.4,0.2-0.8,0.4c-0.4,0.2-0.7,0.4-0.9,0.4C9.4,70,9.2,70,9,69.9c-0.2,0-0.4-0.1-0.5-0.3
					c-0.2-0.2-0.3-0.4-0.3-0.6c0-0.2,0-0.5,0.1-0.7c0.1-0.3,0.3-0.5,0.5-0.7C9,67.3,9.3,67.1,9.5,67c0.3-0.1,0.5-0.1,0.8-0.1
					c0.3,0.1,0.5,0.2,0.7,0.4l-0.4,0.5c-0.2-0.2-0.5-0.3-0.7-0.2c-0.2,0-0.5,0.2-0.7,0.4c-0.3,0.3-0.4,0.5-0.4,0.7
					c0,0.2,0,0.4,0.2,0.5c0.1,0.1,0.3,0.2,0.4,0.2c0.2,0,0.5-0.1,0.9-0.4c0.4-0.3,0.8-0.5,0.9-0.5c0.3-0.1,0.5-0.1,0.8-0.1
					c0.2,0,0.4,0.2,0.6,0.3c0.2,0.2,0.3,0.4,0.3,0.6c0.1,0.3,0,0.5-0.1,0.8c-0.1,0.3-0.3,0.5-0.5,0.8c-0.3,0.3-0.6,0.5-0.9,0.6
					c-0.3,0.1-0.6,0.1-0.9,0.1C10.3,71.5,10,71.4,9.8,71.1"/>
				<path clip-path="url(#SVGID_4_)" fill="#00A7A3" d="M12.3,67.5c-0.5-0.5-0.8-1.1-0.8-1.7c0-0.6,0.2-1.1,0.7-1.6
					c0.3-0.3,0.7-0.5,1-0.6c0.4-0.1,0.8-0.1,1.2,0c0.4,0.1,0.7,0.4,1.1,0.7c0.3,0.3,0.6,0.7,0.7,1.1c0.1,0.4,0.1,0.8,0,1.2
					c-0.1,0.4-0.3,0.7-0.6,1c-0.3,0.3-0.7,0.5-1.1,0.6c-0.4,0.1-0.8,0.1-1.2-0.1C13,68,12.6,67.8,12.3,67.5 M12.8,67
					c0.4,0.4,0.8,0.6,1.3,0.6c0.4,0,0.8-0.1,1.2-0.5c0.3-0.3,0.5-0.7,0.5-1.2c0-0.4-0.2-0.9-0.7-1.3c-0.3-0.3-0.5-0.5-0.8-0.6
					c-0.3-0.1-0.6-0.1-0.9-0.1c-0.3,0.1-0.5,0.2-0.8,0.4c-0.3,0.3-0.5,0.7-0.5,1.1C12,66.1,12.3,66.5,12.8,67"/>
				<path clip-path="url(#SVGID_4_)" fill="#00A7A3" d="M64,69.7l0.4,0.4c-0.2,0.2-0.3,0.3-0.3,0.5c-0.1,0.2-0.1,0.4,0,0.6
					c0.1,0.2,0.2,0.4,0.3,0.7c0.1,0.2,0.3,0.3,0.5,0.4c0.2,0.1,0.3,0.1,0.5,0.1c0.1,0,0.3-0.1,0.4-0.1c0.1-0.1,0.2-0.2,0.2-0.3
					c0-0.1,0-0.3,0-0.5c0-0.1-0.2-0.4-0.3-0.8c-0.2-0.4-0.3-0.7-0.3-0.9c0-0.2,0-0.5,0-0.7c0.1-0.2,0.2-0.4,0.4-0.5
					c0.2-0.1,0.4-0.2,0.6-0.3c0.2,0,0.5,0,0.7,0.2c0.2,0.1,0.5,0.3,0.7,0.6c0.2,0.3,0.4,0.5,0.4,0.8c0.1,0.3,0.1,0.5,0,0.8
					c-0.1,0.2-0.2,0.5-0.4,0.6L67.3,71c0.2-0.2,0.3-0.4,0.3-0.7c0-0.2-0.1-0.5-0.3-0.8c-0.2-0.3-0.5-0.5-0.7-0.5
					c-0.2-0.1-0.4,0-0.6,0.1c-0.1,0.1-0.2,0.2-0.2,0.4c0,0.2,0.1,0.5,0.3,0.9c0.2,0.5,0.4,0.8,0.4,1c0.1,0.3,0.1,0.5,0,0.8
					c-0.1,0.2-0.2,0.4-0.4,0.6C66,72.9,65.8,73,65.5,73c-0.3,0-0.5,0-0.8-0.2c-0.3-0.1-0.5-0.3-0.7-0.6c-0.3-0.3-0.4-0.7-0.5-1
					c-0.1-0.3-0.1-0.6,0-0.9C63.6,70.2,63.8,69.9,64,69.7"/>
				<polygon clip-path="url(#SVGID_4_)" fill="#00A7A3" points="65.7,74.3 69.4,71.4 71.5,74 71.1,74.4 69.3,72.2 68.2,73.1 
					69.8,75.1 69.4,75.5 67.8,73.4 66.5,74.4 68.3,76.7 67.9,77 				"/>
				<polygon clip-path="url(#SVGID_4_)" fill="#00A7A3" points="68.4,20.5 65.1,17.2 65.5,16.7 69.9,17.6 67.3,15 67.7,14.6 
					71,17.9 70.5,18.4 66.2,17.5 68.8,20.1 				"/>
				<polygon clip-path="url(#SVGID_4_)" fill="#00A7A3" points="71.7,17.2 68.5,13.9 70.9,11.5 71.3,11.9 69.3,13.8 70.3,14.8 
					72.1,13 72.5,13.4 70.7,15.2 71.8,16.4 73.8,14.4 74.2,14.7 				"/>
			</g>
		</g>
	</g>
</g>
<g id="Plantilla">
</g>
</svg>
