<?xml version="1.0" encoding="utf-8"?>
<!-- Generator: Adobe Illustrator 17.1.0, SVG Export Plug-In . SVG Version: 6.00 Build 0)  -->
<!DOCTYPE svg PUBLIC "-//W3C//DTD SVG 1.1//EN" "http://www.w3.org/Graphics/SVG/1.1/DTD/svg11.dtd">
<svg version="1.1" id="Layer_1" xmlns="http://www.w3.org/2000/svg" xmlns:xlink="http://www.w3.org/1999/xlink" x="0px" y="0px"
	 viewBox="0 0 64 64" enable-background="new 0 0 64 64" xml:space="preserve">
<polygon fill="#FFFFFF" points="43.6,11.7 35.2,11.8 15.4,13.3 8.5,14.3 8.5,55 19.7,55.6 45.4,55 47.6,51.2 49.1,32.7 49.1,24.3 
	54.6,14.6 53.3,10.2 50.5,8.2 47.4,9.4 "/>
<g>
	<path fill-rule="evenodd" clip-rule="evenodd" fill="#F2942E" d="M32,14.8H10.1v39H46V34l3.1-3v22.9c0,1.7-1.4,3.1-3.1,3.1H10.1
		C8.4,57,7,55.6,7,53.9v-39c0-1.7,1.4-3.1,3.1-3.1h25l0.1,0.1L32,14.8z"/>
	<path fill="#F2942E" d="M49.9,10.1c0.8,0,1.6,0.4,2.5,1.2c1,0.9,1.5,1.8,1.5,2.7c0,0.9-0.5,1.8-1.5,2.8c-0.9,0.9-7.7,7.6-20.2,20
		l-1,0.9c-1.4,0.4-4.9,1.6-7.5,2.4c0.8-2.8,1.8-6.1,2.3-7.7c2.7-2.7,20.4-20.4,21.1-21C47.3,11.3,48.4,10.1,49.9,10.1 M49.9,7
		c-2.6,0-4.5,1.7-5,2.2c-0.7,0.7-21.4,21.4-21.4,21.4c-0.2,0.2-0.3,0.4-0.3,0.6c-0.6,2.1-3.4,11.3-3.4,11.4c-0.1,0.5,0,1,0.3,1.3
		c0.2,0.3,0.6,0.4,0.9,0.4c0.1,0,0.3,0,0.4-0.1c0.1,0,9.6-3.1,11.1-3.6c0.2-0.1,0.4-0.2,0.5-0.3c1-1,20-19.7,21.5-21.3
		c1.6-1.6,2.4-3.3,2.4-5.1c0-1.7-0.9-3.3-2.5-4.9C53.1,7.7,51.6,7,49.9,7L49.9,7z"/>
</g>
</svg>
