<!-- Generator: Adobe Illustrator 19.1.0, SVG Export Plug-In  -->
<svg version="1.1"
	 xmlns="http://www.w3.org/2000/svg" xmlns:xlink="http://www.w3.org/1999/xlink" xmlns:a="http://ns.adobe.com/AdobeSVGViewerExtensions/3.0/"
	 x="0px" y="0px" width="72px" height="72px" viewBox="0 0 72 72" style="enable-background:new 0 0 72 72;" xml:space="preserve">
<style type="text/css">
	.st0{fill:#FFCC67;}
	.st1{fill:none;stroke:#505050;stroke-width:4;stroke-miterlimit:10;}
	.st2{fill:#505050;}
</style>
<defs>
</defs>
<g>
	<circle class="st0" cx="36" cy="36" r="36"/>
	<g>
		<rect x="21.6" y="27.2" class="st1" width="26.5" height="26.5"/>
		<g>
			<g>
				<path class="st2" d="M36.7,49c-1.4,0-2.7-0.7-3.5-1.8L27,38c-0.6-0.9-0.9-2-0.7-3.1c0.2-1.1,0.8-2.1,1.7-2.7
					c0.7-0.5,1.5-0.7,2.4-0.7c1.4,0,2.7,0.7,3.5,1.8l2.7,4L49.5,17c0.8-1.2,2.1-1.9,3.5-1.9c0.8,0,1.6,0.2,2.3,0.7
					c2,1.2,2.5,3.8,1.3,5.8L40.3,47.1C39.5,48.3,38.2,49,36.7,49C36.8,49,36.8,49,36.7,49z"/>
				<path class="st0" d="M53.1,16.5c0.5,0,1,0.1,1.4,0.4c1.3,0.8,1.6,2.5,0.8,3.7L39,46.3c-0.5,0.8-1.3,1.2-2.2,1.2c0,0,0,0,0,0
					c-0.9,0-1.7-0.4-2.2-1.2l-6.3-9.2c-0.8-1.2-0.5-2.9,0.7-3.8c0.5-0.3,1-0.5,1.5-0.5c0.9,0,1.7,0.4,2.2,1.2l4,5.8l14.1-22.2
					C51.3,17,52.2,16.5,53.1,16.5 M53.1,13.5C53.1,13.5,53.1,13.5,53.1,13.5c-2,0-3.8,1-4.8,2.6L36.6,34.5l-1.5-2.1
					C34,30.9,32.3,30,30.4,30c-1.2,0-2.3,0.3-3.2,1c-2.6,1.8-3.2,5.3-1.4,7.9l6.3,9.2c1.1,1.5,2.8,2.5,4.7,2.5c0,0,0.1,0,0.1,0l0,0
					c1.9,0,3.7-1,4.7-2.6l16.3-25.6c1.7-2.6,0.9-6.2-1.7-7.9C55.2,13.8,54.2,13.5,53.1,13.5L53.1,13.5z"/>
			</g>
		</g>
	</g>
</g>
</svg>
