<!-- Generator: Adobe Illustrator 19.1.0, SVG Export Plug-In  -->
<svg version="1.1"
	 xmlns="http://www.w3.org/2000/svg" xmlns:xlink="http://www.w3.org/1999/xlink" xmlns:a="http://ns.adobe.com/AdobeSVGViewerExtensions/3.0/"
	 x="0px" y="0px" width="72px" height="72px" viewBox="0 0 72 72" style="enable-background:new 0 0 72 72;" xml:space="preserve">
<style type="text/css">
	.st0{fill:#33CCCC;}
	.st1{fill:#505050;}
</style>
<defs>
</defs>
<g>
	<circle class="st0" cx="36" cy="36" r="36"/>
	<g>
		<path class="st1" d="M16.3,51.4l12.1-12.1c1.4,2.2,3.4,4.2,5.6,5.6L21.9,57c-1.5,1.5-4.1,1.5-5.6,0C14.8,55.4,14.8,52.9,16.3,51.4
			z"/>
		<path class="st1" d="M57.4,31.7c0-8.7-7.1-15.8-15.8-15.8c-8.7,0-15.8,7.1-15.8,15.8c0,8.7,7.1,15.8,15.8,15.8
			C50.3,47.6,57.4,40.5,57.4,31.7z M41.5,43.6c-6.5,0-11.9-5.3-11.9-11.9c0-6.6,5.3-11.9,11.9-11.9c6.6,0,11.9,5.3,11.9,11.9
			C53.4,38.3,48.1,43.6,41.5,43.6z"/>
		<path class="st1" d="M50.8,31.7h-2.6c0-3.6-3-6.6-6.6-6.6v-2.6C46.6,22.5,50.8,26.6,50.8,31.7z"/>
	</g>
</g>
</svg>
