<?xml version="1.0" encoding="utf-8"?>
<!-- Generator: Adobe Illustrator 17.1.0, SVG Export Plug-In . SVG Version: 6.00 Build 0)  -->
<!DOCTYPE svg PUBLIC "-//W3C//DTD SVG 1.1//EN" "http://www.w3.org/Graphics/SVG/1.1/DTD/svg11.dtd">
<svg version="1.1" id="Layer_1" xmlns="http://www.w3.org/2000/svg" xmlns:xlink="http://www.w3.org/1999/xlink" x="0px" y="0px"
	 viewBox="0 0 64 64" enable-background="new 0 0 64 64" xml:space="preserve">
<path fill-rule="evenodd" clip-rule="evenodd" fill="#FFFFFF" d="M30.8,51.3l-4.7-5.2l-8.7,8.8c0,0-6.5,3.1-8.6-2.5
	s-0.3-9.6,7.8-17.9s24-26.9,27-25.9c3,1,9.5,2.4,11.1,6.5c1.6,4.1,1,10.8-4.3,16.5S30.8,51.3,30.8,51.3z"/>
<path fill="#F2942E" d="M15,56.8c-2.2,0-4.3-0.9-5.9-2.6c-3.7-3.7-3.7-9.7,0-13.4l28.7-30.5c4.5-4.5,11.3-4.1,16.3,0.9
	c2.2,2.2,3.5,5.5,3.5,8.9c0,3.4-1.4,6.6-3.6,8.8L32.3,52.1c-0.6,0.6-1.6,0.7-2.3,0.1c-0.6-0.6-0.7-1.6-0.1-2.3l21.7-23.1
	c1.7-1.7,2.7-4.1,2.7-6.7c0-2.5-0.9-4.9-2.5-6.6c-3.1-3.1-8.1-4.7-11.8-1L11.4,43.1c-2.5,2.5-2.5,6.5,0,8.9c1.1,1.1,2.5,1.7,3.9,1.6
	c1.4-0.1,2.9-0.8,4.1-2.1l22.8-24.3c0.8-0.8,2.5-2.9,0.8-4.6c-1-1-1.6-0.9-1.9-0.9c-0.6,0.1-1.4,0.5-2.1,1.3L21.9,41.3
	c-0.6,0.6-1.6,0.7-2.3,0.1c-0.6-0.6-0.7-1.6-0.1-2.3l17.2-18.3c1.4-1.4,2.7-2.1,4.1-2.2c1.1-0.1,2.7,0.1,4.4,1.8
	c2.5,2.5,2.2,6.1-0.8,9.1L21.8,53.7c-1.8,1.8-4,2.9-6.2,3C15.4,56.8,15.2,56.8,15,56.8z"/>
</svg>
