<?xml version="1.0" encoding="utf-8"?>
<!-- Generator: Adobe Illustrator 17.1.0, SVG Export Plug-In . SVG Version: 6.00 Build 0)  -->
<!DOCTYPE svg PUBLIC "-//W3C//DTD SVG 1.1//EN" "http://www.w3.org/Graphics/SVG/1.1/DTD/svg11.dtd">
<svg version="1.1" id="Capa_1" xmlns="http://www.w3.org/2000/svg" xmlns:xlink="http://www.w3.org/1999/xlink" x="0px" y="0px"
	 viewBox="0 0 28.6 28.4" enable-background="new 0 0 28.6 28.4" xml:space="preserve">
<path fill="#FF0000" d="M26.7,21.9L26.7,21.9l-0.1-0.1L18.9,14l7.7-7.7c1.1-1.1,1.1-2.8,0.1-4c-0.5-0.6-1.3-1-2.1-1
	c-0.7,0-1.4,0.3-2,0.7l-0.1,0.1l-0.1,0.1L14.8,10L7,2.2C6.5,1.7,5.8,1.4,5,1.4c-0.7,0-1.4,0.3-1.9,0.7c-0.6,0.5-1,1.3-1,2.2
	c0,0.7,0.3,1.4,0.7,1.9l0,0.1L3,6.3l7.7,7.7L3,21.8c-1.1,1.1-1.1,2.8-0.1,4c0.5,0.6,1.3,1,2.1,1c0.7,0,1.4-0.3,2-0.7L7,25.9L7,25.9
	l7.7-7.7l7.7,7.7c0.5,0.5,1.3,0.8,2,0.8c0.7,0,1.4-0.3,1.9-0.7c0.6-0.5,1-1.3,1-2.2C27.4,23.1,27.2,22.4,26.7,21.9z M24.6,3.4
	c0.1,0,0.1,0,0.2,0C24.7,3.4,24.7,3.4,24.6,3.4C24.6,3.4,24.6,3.4,24.6,3.4z M4.6,3.5C4.7,3.4,4.9,3.4,5,3.4c0,0,0.1,0,0.1,0
	C4.9,3.4,4.7,3.4,4.6,3.5z M5,24.7c-0.1,0-0.1,0-0.2,0C4.8,24.7,4.9,24.7,5,24.7C5,24.7,5,24.7,5,24.7z M24.5,24.7
	C24.5,24.7,24.5,24.7,24.5,24.7c0.2,0,0.4-0.1,0.6-0.2C24.9,24.6,24.7,24.7,24.5,24.7z"/>
</svg>
