<?xml version="1.0" encoding="utf-8"?>
<!-- Generator: Adobe Illustrator 17.1.0, SVG Export Plug-In . SVG Version: 6.00 Build 0)  -->
<!DOCTYPE svg PUBLIC "-//W3C//DTD SVG 1.1//EN" "http://www.w3.org/Graphics/SVG/1.1/DTD/svg11.dtd">
<svg version="1.1" id="Capa_1" xmlns="http://www.w3.org/2000/svg" xmlns:xlink="http://www.w3.org/1999/xlink" x="0px" y="0px"
	 viewBox="0 0 37.4 35.6" enable-background="new 0 0 37.4 35.6" xml:space="preserve">
<path fill="#009933" d="M34.2,7.4L34.2,7.4l-0.1-0.1c-0.5-0.5-1.2-0.8-2-0.8c-0.7,0-1.4,0.3-1.9,0.7l-0.1,0.1L30,7.3L15.9,22.4
	L8.4,15c-0.5-0.5-1.2-0.8-2-0.8c-0.7,0-1.4,0.3-1.9,0.7l-0.1,0L4.3,15c-1.1,1.1-1.1,2.8-0.1,3.9l0,0.1L4.3,19l9.6,9.6
	c0.5,0.5,1.2,0.8,2,0.8c0.7,0,1.4-0.3,1.9-0.7l0.1-0.1l0.1-0.1c0.1-0.1,0.2-0.3,0.3-0.4L34,11.3c0.5-0.5,0.9-1.2,0.9-2
	C34.9,8.6,34.7,7.9,34.2,7.4z M5.6,16.7c-0.1,0.2,0,0.4,0.1,0.6C5.5,17.2,5.5,17,5.6,16.7z M32.1,8.4c0.2,0,0.4,0.1,0.6,0.2
	c-0.2-0.2-0.6-0.3-0.9-0.2C31.9,8.5,32,8.4,32.1,8.4z M15.9,27.4C15.9,27.4,15.9,27.4,15.9,27.4C15.9,27.4,15.9,27.4,15.9,27.4
	C15.9,27.4,15.9,27.4,15.9,27.4z M16.2,27.4C16.2,27.3,16.2,27.3,16.2,27.4C16.2,27.3,16.2,27.3,16.2,27.4z"/>
</svg>
